<svg width="21" height="19" viewBox="0 0 21 19" fill="none" xmlns="http://www.w3.org/2000/svg">
<path id="Vector - 0" fill-rule="evenodd" clip-rule="evenodd" d="M20.5 9.25C20.4974 6.76579 18.4842 4.75258 16 4.75H12.2688C11.9959 4.73406 7.24187 4.39937 2.71469 0.6025C2.26836 0.227648 1.64529 0.145289 1.11689 0.391299C0.588491 0.637309 0.250443 1.16714 0.25 1.75V16.75C0.250079 17.333 0.58799 17.8632 1.11646 18.1094C1.64494 18.3557 2.26823 18.2734 2.71469 17.8984C6.25562 14.9284 9.93344 14.0772 11.5 13.8391V16.8128C11.4994 17.3148 11.7499 17.7839 12.1675 18.0625L13.1987 18.7497C13.6032 19.0196 14.1134 19.0768 14.5676 18.903C15.0217 18.7292 15.3635 18.346 15.4844 17.875L16.5878 13.7163C18.8269 13.4183 20.4995 11.5088 20.5 9.25ZM1.75 16.7434V1.75C5.76344 5.11656 9.87156 5.96875 11.5 6.17875V12.3175C9.87344 12.5312 5.76625 13.3816 1.75 16.7434ZM14.0312 17.4934V17.5037L13 16.8166V13.75H15.025L14.0312 17.4934ZM16 12.25H13V6.25H16C17.6569 6.25 19 7.59315 19 9.25C19 10.9069 17.6569 12.25 16 12.25Z" fill="#1C170D"/>
</svg>
