<svg width="20" height="20" viewBox="0 0 20 20" fill="none" xmlns="http://www.w3.org/2000/svg">
<path id="Vector - 0" fill-rule="evenodd" clip-rule="evenodd" d="M11.125 14.875C11.125 15.4963 10.6213 16 10 16C9.37868 16 8.875 15.4963 8.875 14.875C8.875 14.2537 9.37868 13.75 10 13.75C10.6213 13.75 11.125 14.2537 11.125 14.875ZM10 4.75C7.93188 4.75 6.25 6.26406 6.25 8.125V8.5C6.25 8.91421 6.58579 9.25 7 9.25C7.41421 9.25 7.75 8.91421 7.75 8.5V8.125C7.75 7.09375 8.75969 6.25 10 6.25C11.2403 6.25 12.25 7.09375 12.25 8.125C12.25 9.15625 11.2403 10 10 10C9.58579 10 9.25 10.3358 9.25 10.75V11.5C9.25 11.9142 9.58579 12.25 10 12.25C10.4142 12.25 10.75 11.9142 10.75 11.5V11.4325C12.46 11.1184 13.75 9.75438 13.75 8.125C13.75 6.26406 12.0681 4.75 10 4.75ZM19.75 10C19.75 15.3848 15.3848 19.75 10 19.75C4.61522 19.75 0.25 15.3848 0.25 10C0.25 4.61522 4.61522 0.25 10 0.25C15.3824 0.255684 19.7443 4.61758 19.75 10ZM18.25 10C18.25 5.44365 14.5563 1.75 10 1.75C5.44365 1.75 1.75 5.44365 1.75 10C1.75 14.5563 5.44365 18.25 10 18.25C14.5542 18.2448 18.2448 14.5542 18.25 10Z" fill="#1C170D"/>
</svg>
