<svg width="25" height="26" viewBox="0 0 25 26" fill="none" xmlns="http://www.w3.org/2000/svg">
<g id="icons8:idea">
<path id="Vector" d="M5.32266 2.12988L4.22266 3.22832L5.85938 4.86426L6.95781 3.76582L5.32266 2.12988ZM19.6781 2.12988L18.0414 3.76582L19.1406 4.86426L20.7766 3.2291L19.6781 2.12988ZM12.5 2.61738C12.2422 2.61947 11.9818 2.63613 11.7188 2.66738H11.6953C8.52656 3.03066 6.00469 5.59082 5.56641 8.74551C5.21641 11.2846 6.26328 13.5869 8.00781 15.0697C8.72131 15.6788 9.20397 16.5145 9.375 17.4369V22.1244H11.1562C11.4281 22.5908 11.9242 22.9057 12.5 22.9057C13.0758 22.9057 13.5719 22.5908 13.8437 22.1244H15.625V18.9994H15.6984V18.0713C15.6984 16.926 16.2937 15.7713 17.2609 14.8736C18.5547 13.5783 19.5312 11.7385 19.5312 9.6252C19.5312 5.76582 16.3547 2.58145 12.5 2.61738ZM12.5 4.17988C15.5195 4.1377 17.9688 6.60957 17.9688 9.6252C17.9688 11.2611 17.2109 12.7018 16.1617 13.7502L16.1867 13.7752C15.1445 14.737 14.4703 16.0322 14.2805 17.4377H10.8633C10.6914 16.0986 10.1172 14.8025 9.03203 13.8729C7.65156 12.701 6.82891 10.9354 7.10391 8.9416C7.44531 6.48066 9.44219 4.50176 11.8891 4.23066C12.0911 4.20265 12.2945 4.18595 12.4984 4.18066L12.5 4.17988ZM1.5625 9.6252V11.1877H3.90625V9.6252H1.5625ZM21.0938 9.6252V11.1877H23.4375V9.6252H21.0938ZM5.85938 15.9486L4.22344 17.5838L5.32266 18.683L6.95703 17.0471L5.85938 15.9486ZM19.1406 15.9486L18.0422 17.0471L19.6773 18.683L20.7766 17.5838L19.1406 15.9486ZM10.9375 19.0002H14.0625V20.5627H10.9375V19.0002Z" fill="#1C170D"/>
</g>
</svg>
