<svg width="25" height="26" viewBox="0 0 25 26" fill="none" xmlns="http://www.w3.org/2000/svg">
<g id="arcticons:deck">
<path id="Vector" d="M4.35416 11.8333H20.6458C20.8416 11.8326 21.0356 11.8706 21.2167 11.9452C21.3977 12.0199 21.5622 12.1296 21.7007 12.268C21.8391 12.4065 21.9488 12.571 22.0234 12.752C22.098 12.933 22.1361 13.127 22.1354 13.3228V21.4062C22.1354 21.8012 21.9785 22.1801 21.6991 22.4595C21.4198 22.7388 21.0409 22.8958 20.6458 22.8958H4.35416C3.95909 22.8958 3.58021 22.7388 3.30086 22.4595C3.02151 22.1801 2.86457 21.8012 2.86457 21.4062V13.3228C2.86388 13.127 2.90194 12.933 2.97656 12.752C3.05117 12.571 3.16087 12.4065 3.29933 12.268C3.43778 12.1296 3.60227 12.0199 3.7833 11.9452C3.96434 11.8706 4.15835 11.8326 4.35416 11.8333Z" stroke="#1C170D" stroke-linecap="round" stroke-linejoin="round"/>
<path id="Vector_2" d="M20.6459 11.8334V9.60425C20.6459 9.46611 20.591 9.33364 20.4933 9.23596C20.3956 9.13829 20.2632 9.08341 20.125 9.08341H4.87502C4.73689 9.08341 4.60441 9.13829 4.50674 9.23596C4.40906 9.33364 4.35419 9.46611 4.35419 9.60425V11.8282M19.4688 9.08341V6.86987C19.4688 6.73174 19.4139 6.59926 19.3162 6.50159C19.2185 6.40391 19.0861 6.34904 18.9479 6.34904H6.0521C5.91397 6.34904 5.78149 6.40391 5.68382 6.50159C5.58614 6.59926 5.53127 6.73174 5.53127 6.86987V9.08341M18.099 6.34904V4.12508C18.099 3.98695 18.0441 3.85447 17.9464 3.7568C17.8488 3.65912 17.7163 3.60425 17.5781 3.60425H7.4219C7.28376 3.60425 7.15129 3.65912 7.05361 3.7568C6.95594 3.85447 6.90106 3.98695 6.90106 4.12508V6.34904" stroke="#1C170D" stroke-linecap="round" stroke-linejoin="round"/>
</g>
</svg>
