<svg width="18" height="20" viewBox="0 0 18 20" fill="none" xmlns="http://www.w3.org/2000/svg">
<rect width="18" height="20" fill="#1E1E1E"/>
<rect width="1280" height="800" transform="translate(-375 -449)" fill="white"/>
<g clip-path="url(#clip0_0_1)">
<rect width="1280" height="800" transform="translate(-375 -449)" fill="white"/>
<rect width="908" height="56" transform="translate(-27 -18)" fill="white"/>
<rect x="-11" y="-10" width="40" height="40" rx="8" fill="#F5F0E6"/>
<g clip-path="url(#clip1_0_1)">
<path fill-rule="evenodd" clip-rule="evenodd" d="M17.0306 5.71938L11.7806 0.469375C11.6399 0.328758 11.449 0.249844 11.25 0.25H2.25C1.42157 0.25 0.75 0.921573 0.75 1.75V18.25C0.75 19.0784 1.42157 19.75 2.25 19.75H15.75C16.5784 19.75 17.25 19.0784 17.25 18.25V6.25C17.2502 6.05103 17.1712 5.86015 17.0306 5.71938ZM12 2.81031L14.6897 5.5H12V2.81031ZM15.75 18.25H2.25V1.75H10.5V6.25C10.5 6.66421 10.8358 7 11.25 7H15.75V18.25ZM11.7806 10.9694C12.0737 11.2624 12.0737 11.7376 11.7806 12.0306C11.4876 12.3237 11.0124 12.3237 10.7194 12.0306L9.75 11.0603V15.25C9.75 15.6642 9.41421 16 9 16C8.58579 16 8.25 15.6642 8.25 15.25V11.0603L7.28063 12.0306C6.98757 12.3237 6.51243 12.3237 6.21937 12.0306C5.92632 11.7376 5.92632 11.2624 6.21937 10.9694L8.46937 8.71937C8.61005 8.57854 8.80094 8.49941 9 8.49941C9.19906 8.49941 9.38995 8.57854 9.53063 8.71937L11.7806 10.9694Z" fill="#1C170D"/>
</g>
</g>
<defs>
<clipPath id="clip0_0_1">
<rect width="1280" height="800" fill="white" transform="translate(-375 -449)"/>
</clipPath>
<clipPath id="clip1_0_1">
<rect width="24" height="24" fill="white" transform="translate(-3 -2)"/>
</clipPath>
</defs>
</svg>
