<svg width="20" height="20" viewBox="0 0 20 20" fill="none" xmlns="http://www.w3.org/2000/svg">
<g id="file-div-3" clip-path="url(#clip0_98_601)">
<path id="files.svg" fill-rule="evenodd" clip-rule="evenodd" d="M16.3797 9.55781C16.497 9.67504 16.563 9.83412 16.563 10C16.563 10.1659 16.497 10.325 16.3797 10.4422L9.96953 16.8484C8.26068 18.5571 5.49027 18.5569 3.78164 16.848C2.07301 15.1392 2.07318 12.3688 3.78203 10.6602L11.5367 2.79141C12.7567 1.57012 14.7357 1.56907 15.957 2.78906C17.1783 4.00905 17.1794 5.98809 15.9594 7.20937L8.20312 15.0781C7.46962 15.8116 6.28038 15.8116 5.54688 15.0781C4.81337 14.3446 4.81337 13.1554 5.54688 12.4219L12.0547 5.81094C12.2099 5.64538 12.4426 5.57695 12.6627 5.63215C12.8828 5.68736 13.0557 5.85752 13.1144 6.07671C13.1731 6.29591 13.1084 6.52969 12.9453 6.6875L6.43672 13.3055C6.19164 13.5486 6.19007 13.9444 6.4332 14.1895C6.67634 14.4345 7.07211 14.4361 7.31719 14.193L15.0727 6.32812C15.8062 5.59613 15.8074 4.40811 15.0754 3.67461C14.3434 2.94111 13.1554 2.93988 12.4219 3.67188L4.66875 11.5375C3.44725 12.7571 3.44568 14.7359 4.66523 15.9574C5.88479 17.1789 7.86366 17.1805 9.08516 15.9609L15.4961 9.55469C15.741 9.31166 16.1365 9.31306 16.3797 9.55781Z" fill="#A1824A"/>
</g>
<defs>
<clipPath id="clip0_98_601">
<rect width="20" height="20" fill="white"/>
</clipPath>
</defs>
</svg>
