<svg width="22" height="22" viewBox="0 0 22 22" fill="none" xmlns="http://www.w3.org/2000/svg">
<g id="Group">
<path id="Vector" d="M3 14.25C2.46957 14.25 1.96086 14.0393 1.58579 13.6642C1.21071 13.2891 1 12.7804 1 12.25C1 11.7196 1.21071 11.2109 1.58579 10.8358C1.96086 10.4607 2.46957 10.25 3 10.25M19 14.25C19.5304 14.25 20.0391 14.0393 20.4142 13.6642C20.7893 13.2891 21 12.7804 21 12.25C21 11.7196 20.7893 11.2109 20.4142 10.8358C20.0391 10.4607 19.5304 10.25 19 10.25M6 5.75V2.75M16 5.75V2.75" stroke="#1C170D" stroke-width="1.5" stroke-linecap="round" stroke-linejoin="round"/>
<path id="Vector_2" d="M6 2.75C6.55228 2.75 7 2.30228 7 1.75C7 1.19772 6.55228 0.75 6 0.75C5.44772 0.75 5 1.19772 5 1.75C5 2.30228 5.44772 2.75 6 2.75Z" stroke="#1C170D" stroke-width="1.5" stroke-linecap="round" stroke-linejoin="round"/>
<path id="Vector_3" d="M16 2.75C16.5523 2.75 17 2.30228 17 1.75C17 1.19772 16.5523 0.75 16 0.75C15.4477 0.75 15 1.19772 15 1.75C15 2.30228 15.4477 2.75 16 2.75Z" stroke="#1C170D" stroke-width="1.5" stroke-linecap="round" stroke-linejoin="round"/>
<path id="Vector_4" d="M12.5 5.75H9.5C6.672 5.75 5.257 5.75 4.379 6.659C3.501 7.568 3.5 9.031 3.5 11.957C3.5 14.883 3.5 16.346 4.379 17.255C5.257 18.164 6.672 18.164 9.5 18.164H10.525C11.317 18.164 11.596 18.327 12.142 18.921C12.745 19.578 13.679 20.455 14.524 20.659C15.725 20.949 15.86 20.548 15.592 19.403C15.516 19.077 15.325 18.556 15.526 18.252C15.639 18.082 15.826 18.04 16.201 17.956C16.792 17.824 17.28 17.608 17.621 17.255C18.5 16.345 18.5 14.883 18.5 11.957C18.5 9.031 18.5 7.568 17.621 6.659C16.743 5.75 15.328 5.75 12.5 5.75Z" stroke="#1C170D" stroke-width="1.5" stroke-linecap="round" stroke-linejoin="round"/>
<path id="Vector_5" d="M8.5 13.75C9.07 14.357 9.978 14.75 11 14.75C12.022 14.75 12.93 14.357 13.5 13.75M8.009 9.75H8M14.009 9.75H14" stroke="#1C170D" stroke-width="1.5" stroke-linecap="round" stroke-linejoin="round"/>
</g>
</svg>
