<svg width="24" height="25" viewBox="0 0 24 25" fill="none" xmlns="http://www.w3.org/2000/svg">
<g id="mdi:google-classroom" clip-path="url(#clip0_108_501)">
<path id="Vector" d="M23 2.25H1C0.734784 2.25 0.48043 2.35536 0.292893 2.54289C0.105357 2.73043 0 2.98478 0 3.25L0 21.25C0 21.5152 0.105357 21.7696 0.292893 21.9571C0.48043 22.1446 0.734784 22.25 1 22.25H23C23.2652 22.25 23.5196 22.1446 23.7071 21.9571C23.8946 21.7696 24 21.5152 24 21.25V3.25C24 2.98478 23.8946 2.73043 23.7071 2.54289C23.5196 2.35536 23.2652 2.25 23 2.25ZM22 20.25H20V19.25H15V20.25H2V4.25H22V20.25ZM10.29 9.96C10.29 9.50648 10.4702 9.07154 10.7908 8.75085C11.1115 8.43016 11.5465 8.25 12 8.25C12.95 8.25 13.71 9.02 13.71 9.96C13.71 10.91 12.95 11.68 12 11.68C11.05 11.68 10.29 10.91 10.29 9.96ZM5.71 11.54C5.71 10.83 6.29 10.25 7 10.25C7.34213 10.25 7.67025 10.3859 7.91217 10.6278C8.15409 10.8698 8.29 11.1979 8.29 11.54C8.29 12.25 7.71 12.82 7 12.82C6.29 12.82 5.71 12.25 5.71 11.54ZM15.71 11.54C15.71 11.1979 15.8459 10.8698 16.0878 10.6278C16.3298 10.3859 16.6579 10.25 17 10.25C17.3421 10.25 17.6702 10.3859 17.9122 10.6278C18.1541 10.8698 18.29 11.1979 18.29 11.54C18.29 12.25 17.71 12.82 17 12.82C16.29 12.82 15.71 12.25 15.71 11.54ZM20 15.39V16.25H4V15.39C4 14.45 5.55 13.68 7 13.68C7.55 13.68 8.11 13.79 8.6 13.98C9.35 13.29 10.7 12.82 12 12.82C13.3 12.82 14.65 13.29 15.4 13.98C15.89 13.79 16.45 13.68 17 13.68C18.45 13.68 20 14.45 20 15.39Z" fill="#1C170D"/>
</g>
<defs>
<clipPath id="clip0_108_501">
<rect width="24" height="24" fill="white" transform="translate(0 0.25)"/>
</clipPath>
</defs>
</svg>
