<svg width="24" height="25" viewBox="0 0 24 25" fill="none" xmlns="http://www.w3.org/2000/svg">
<g id="mdi:cards">
<path id="Vector" d="M21.47 4.6L20.13 4.04V13.07L22.56 7.21C22.97 6.19 22.5 5.02 21.47 4.6ZM1.97001 8.3L6.93001 20.25C7.07606 20.6136 7.32519 20.9265 7.64677 21.1504C7.96834 21.3743 8.34833 21.4993 8.74001 21.51C9.00001 21.51 9.27001 21.46 9.53001 21.35L16.9 18.3C17.65 17.99 18.11 17.25 18.13 16.51C18.14 16.25 18.09 15.96 18 15.7L13 3.75C12.8591 3.3837 12.611 3.06844 12.2881 2.84542C11.9652 2.62241 11.5825 2.50202 11.19 2.5C10.93 2.5 10.67 2.56 10.42 2.65L3.06001 5.7C2.57077 5.90035 2.18112 6.28678 1.97672 6.77433C1.77232 7.26189 1.7699 7.81066 1.97001 8.3ZM18.12 4.5C18.12 3.96957 17.9093 3.46086 17.5342 3.08579C17.1591 2.71071 16.6504 2.5 16.12 2.5H14.67L18.12 10.84" fill="#1C170D"/>
</g>
</svg>
