<svg width="25" height="26" viewBox="0 0 25 26" fill="none" xmlns="http://www.w3.org/2000/svg">
<g id="icons8:idea">
<path id="Vector" d="M5.32266 2.12964L4.22266 3.22808L5.85938 4.86401L6.95781 3.76558L5.32266 2.12964ZM19.6781 2.12964L18.0414 3.76558L19.1406 4.86401L20.7766 3.22886L19.6781 2.12964ZM12.5 2.61714C12.2422 2.61922 11.9818 2.63589 11.7188 2.66714H11.6953C8.52656 3.03042 6.00469 5.59058 5.56641 8.74526C5.21641 11.2843 6.26328 13.5867 8.00781 15.0695C8.72131 15.6786 9.20397 16.5143 9.375 17.4367V22.1242H11.1562C11.4281 22.5906 11.9242 22.9054 12.5 22.9054C13.0758 22.9054 13.5719 22.5906 13.8437 22.1242H15.625V18.9992H15.6984V18.071C15.6984 16.9257 16.2937 15.771 17.2609 14.8734C18.5547 13.5781 19.5312 11.7382 19.5312 9.62495C19.5312 5.76558 16.3547 2.5812 12.5 2.61714ZM12.5 4.17964C15.5195 4.13745 17.9688 6.60933 17.9688 9.62495C17.9688 11.2609 17.2109 12.7015 16.1617 13.75L16.1867 13.775C15.1445 14.7368 14.4703 16.032 14.2805 17.4375H10.8633C10.6914 16.0984 10.1172 14.8023 9.03203 13.8726C7.65156 12.7007 6.82891 10.9351 7.10391 8.94136C7.44531 6.48042 9.44219 4.50151 11.8891 4.23042C12.0911 4.2024 12.2945 4.18571 12.4984 4.18042L12.5 4.17964ZM1.5625 9.62495V11.1875H3.90625V9.62495H1.5625ZM21.0938 9.62495V11.1875H23.4375V9.62495H21.0938ZM5.85938 15.9484L4.22344 17.5835L5.32266 18.6828L6.95703 17.0468L5.85938 15.9484ZM19.1406 15.9484L18.0422 17.0468L19.6773 18.6828L20.7766 17.5835L19.1406 15.9484ZM10.9375 19H14.0625V20.5625H10.9375V19Z" fill="#1C170D"/>
</g>
</svg>
