<svg width="24" height="25" viewBox="0 0 24 25" fill="none" xmlns="http://www.w3.org/2000/svg">
<g id="material-symbols-light:quiz-outline">
<path id="Vector" d="M13.5 15.289C13.7067 15.289 13.8883 15.2103 14.045 15.053C14.2017 14.8957 14.2803 14.714 14.281 14.508C14.2817 14.302 14.203 14.1203 14.045 13.963C13.887 13.8057 13.7053 13.727 13.5 13.727C13.2947 13.727 13.113 13.8057 12.955 13.963C12.797 14.1203 12.7183 14.302 12.719 14.508C12.7197 14.714 12.7983 14.8957 12.955 15.053C13.1117 15.2103 13.2933 15.2897 13.5 15.289ZM13.058 12.473H13.942C13.968 12.0537 14.0343 11.738 14.141 11.526C14.247 11.314 14.5027 11.018 14.908 10.638C15.3307 10.254 15.6253 9.91067 15.792 9.608C15.9587 9.30667 16.042 8.96034 16.042 8.569C16.042 7.89567 15.802 7.33467 15.322 6.886C14.842 6.43667 14.2347 6.212 13.5 6.212C12.9447 6.212 12.4513 6.362 12.02 6.662C11.5887 6.962 11.2603 7.371 11.035 7.889L11.846 8.246C12.0347 7.85534 12.2647 7.562 12.536 7.366C12.8073 7.17 13.1287 7.07234 13.5 7.073C13.9773 7.073 14.373 7.21434 14.687 7.497C15.0003 7.77967 15.157 8.14467 15.157 8.592C15.157 8.864 15.081 9.117 14.929 9.351C14.7763 9.585 14.514 9.86667 14.142 10.196C13.7207 10.564 13.4347 10.9017 13.284 11.209C13.1333 11.5163 13.058 11.9377 13.058 12.473ZM8.116 17.75C7.65534 17.75 7.271 17.596 6.963 17.288C6.655 16.98 6.50067 16.5957 6.5 16.135V5.365C6.5 4.905 6.65434 4.52067 6.963 4.212C7.27167 3.90334 7.656 3.74934 8.116 3.75H18.885C19.345 3.75 19.7293 3.904 20.038 4.212C20.3467 4.52 20.5007 4.90434 20.5 5.365V16.135C20.5 16.595 20.346 16.979 20.038 17.287C19.73 17.595 19.3453 17.7493 18.884 17.75H8.116ZM8.116 16.75H18.885C19.0383 16.75 19.1793 16.686 19.308 16.558C19.4367 16.43 19.5007 16.289 19.5 16.135V5.365C19.5 5.21167 19.436 5.07067 19.308 4.942C19.18 4.81334 19.0387 4.74934 18.884 4.75H8.116C7.962 4.75 7.82067 4.814 7.692 4.942C7.56334 5.07 7.49934 5.211 7.5 5.365V16.135C7.5 16.2883 7.564 16.4293 7.692 16.558C7.82 16.6867 7.961 16.7507 8.115 16.75M5.115 20.75C4.655 20.75 4.27067 20.596 3.962 20.288C3.65334 19.98 3.49934 19.5957 3.5 19.135V7.365H4.5V19.135C4.5 19.2883 4.564 19.4293 4.692 19.558C4.82 19.6867 4.961 19.7507 5.115 19.75H16.885V20.75H5.115Z" fill="#1C170D"/>
</g>
</svg>
